<?xml version="1.0" encoding="UTF-8" standalone="no"?>
<!-- Created with Inkscape (http://www.inkscape.org/) -->

<svg
   xmlns:dc="http://purl.org/dc/elements/1.1/"
   xmlns:cc="http://creativecommons.org/ns#"
   xmlns:rdf="http://www.w3.org/1999/02/22-rdf-syntax-ns#"
   xmlns:svg="http://www.w3.org/2000/svg"
   xmlns="http://www.w3.org/2000/svg"
   version="1.1"
   width="744.09448"
   height="1052.3622"
   id="svg2">
  <defs
     id="defs4">
    <linearGradient
       id="linearGradient4688">
      <stop
         id="stop4690"
         style="stop-color:#ffffff;stop-opacity:1"
         offset="0" />
    </linearGradient>
  </defs>
  <metadata
     id="metadata7">
    <rdf:RDF>
      <cc:Work
         rdf:about="">
        <dc:format>image/svg+xml</dc:format>
        <dc:type
           rdf:resource="http://purl.org/dc/dcmitype/StillImage" />
        <dc:title></dc:title>
      </cc:Work>
    </rdf:RDF>
  </metadata>
  <g
     id="layer1">
    <path
       d="m 530.33009,470.00925 a 206.07112,208.5965 0 1 1 -412.14224,0 206.07112,208.5965 0 1 1 412.14224,0 z"
       transform="translate(0,-10.15625)"
       id="path2990"
       style="fill:#ffffff;fill-opacity:1;stroke:#000000;stroke-width:9.30000019;stroke-linecap:butt;stroke-linejoin:round;stroke-miterlimit:4;stroke-opacity:1;stroke-dasharray:none" />
    <g
       id="g3994"
       style="fill:#ffffff;fill-opacity:1;stroke:#000000;stroke-width:9.30000019;stroke-linecap:butt;stroke-linejoin:round;stroke-miterlimit:4;stroke-opacity:1;stroke-dasharray:none">
      <path
         d="m -95.388986,-441.83892 -9.807864,-111.77813 -50.46463,-68.1892 15.86635,130.82427 z"
         id="path4000"
         style="fill:#8686bf;fill-rule:evenodd;stroke:none" />
      <path
         d="m -95.388986,-441.83892 -44.406144,-49.14306 178.514719,220.33759 20.387767,20.83455 z"
         id="path3996"
         style="fill:#353564;fill-rule:evenodd;stroke:none" />
      <path
         d="m -95.388986,-441.83892 -9.807864,-111.77813 168.22974,234.30594 -3.925534,69.50127 z"
         id="path3998"
         style="fill:#4d4d9f;fill-rule:evenodd;stroke:none" />
      <path
         d="m 59.107356,-249.80984 3.925534,-69.50127 -21.656232,-28.64331 -2.657069,77.31003 z"
         id="path4006"
         style="fill:#e9e9ff;fill-rule:evenodd;stroke:none" />
      <path
         d="m -139.79513,-490.98198 -15.86635,-130.82427 197.038138,273.85183 -2.657069,77.31003 z"
         id="path4004"
         style="fill:#afafde;fill-rule:evenodd;stroke:none" />
      <path
         d="m -105.19685,-553.61705 -50.46463,-68.1892 197.038138,273.85183 21.656232,28.64331 z"
         id="path4002"
         style="fill:#d7d7ff;fill-rule:evenodd;stroke:none" />
    </g>
    <g
       id="g4366"
       style="fill:#ffffff;fill-opacity:1;stroke:#000000;stroke-width:9.30000019;stroke-linecap:butt;stroke-linejoin:round;stroke-miterlimit:4;stroke-opacity:1;stroke-dasharray:none">
      <path
         d="M -1390.8984,1211.4184 -3034.5174,1808.119 -26286.27,14360.047 -2530.573,2021.6278 z"
         id="path4372"
         style="fill:#8686bf;fill-rule:evenodd;stroke:none" />
      <path
         d="M -1390.8984,1211.4184 -2530.573,2021.6278 -969.79856,1188.4327 -651.36911,893.15524 z"
         id="path4368"
         style="fill:#353564;fill-rule:evenodd;stroke:none" />
      <path
         d="m -1390.8984,1211.4184 -1643.619,596.7006 2051.37456,-819.67285 331.77373,-95.29091 z"
         id="path4370"
         style="fill:#4d4d9f;fill-rule:evenodd;stroke:none" />
      <path
         d="m -651.36911,893.15524 -331.77373,95.29091 -775.29306,591.35715 788.63734,-391.3706 z"
         id="path4378"
         style="fill:#e9e9ff;fill-rule:evenodd;stroke:none" />
      <path
         d="M -2530.573,2021.6278 -26286.27,14360.047 -1758.4359,1579.8033 -969.79856,1188.4327 z"
         id="path4376"
         style="fill:#afafde;fill-rule:evenodd;stroke:none" />
      <path
         d="M -3034.5174,1808.119 -26286.27,14360.047 -1758.4359,1579.8033 -983.14284,988.44615 z"
         id="path4374"
         style="fill:#d7d7ff;fill-rule:evenodd;stroke:none" />
    </g>
    <g
       id="g6166">
      <path
         d="m 245.48752,361.4173 92.05781,-53.14961 92.05782,53.14961 -92.05782,53.14961 z"
         id="path4672"
         style="fill:none;stroke:#000000;stroke-width:8;stroke-linecap:butt;stroke-linejoin:miter;stroke-miterlimit:4;stroke-opacity:1;stroke-dasharray:none" />
      <path
         d="m 332.07658,423.16066 0,106.29921 -92.05781,-53.14961 0,-106.29921 z"
         id="path4674"
         style="fill:none;stroke:#000000;stroke-width:8;stroke-linecap:butt;stroke-linejoin:miter;stroke-miterlimit:4;stroke-opacity:1;stroke-dasharray:none" />
      <path
         d="m 343.01408,423.94191 0,106.29921 92.05782,-53.14961 0,-106.29921 -92.05782,53.14961 z"
         id="path4676"
         style="fill:none;stroke:#000000;stroke-width:8;stroke-linecap:butt;stroke-linejoin:miter;stroke-miterlimit:4;stroke-opacity:1;stroke-dasharray:none" />
    </g>
    <path
       d="m 184.64192,570.06164 c -0.59948,-2.38849 1.79125,-38.80695 2.60065,-39.61635 0.2437,-0.2437 12.8222,2.27982 27.95223,5.60781 15.13003,3.328 28.13978,6.05091 28.91055,6.05091 0.77077,0 9.04115,-4.60294 18.37863,-10.22875 l 16.97723,-10.22874 40.4061,-1.86221 c 22.22335,-1.02422 43.42831,-1.87611 47.12211,-1.89309 l 6.71601,-0.0309 9.8075,2.08013 c 3.85595,0.81783 -8.67202,12.47843 -9.03467,12.84115 -0.36272,0.36272 -15.98054,1.35858 -34.70626,2.21302 l -34.0468,1.55352 -0.29045,9.34391 -0.29044,9.34391 5.88084,0 c 3.23446,0 19.18508,-0.70109 35.44583,-1.55797 l 29.56499,-1.55796 37.83442,-17.7334 39.85472,-11.67247 4.79195,0.003 c 12.20979,0.008 12.70749,11.98722 11.6933,12.60978 -0.46224,0.28375 -21.45577,8.09276 -46.65228,17.35337 l -45.81183,16.83746 -78.94201,1.41984 c -43.4181,0.78092 -86.73403,1.43128 -96.25763,1.44526 -17.2859,0.0254 -17.31663,0.0214 -17.90466,-2.32152 z"
       id="path3844"
       style="fill:#ffffff;fill-opacity:1;stroke:#000000;stroke-width:9.39441872;stroke-linecap:butt;stroke-linejoin:round;stroke-miterlimit:4;stroke-opacity:1;stroke-dasharray:none" />
    <path
       d="m 191.28925,566.99822 c -1.78312,-0.37637 -1.79226,-0.44179 -1.27176,-9.10881 1.21242,-20.18847 1.36487,-21.24249 3.0508,-21.09168 0.84875,0.0759 12.84667,2.50674 26.66205,5.40184 l 25.11887,5.26381 4.97741,-2.56819 c 2.73758,-1.41251 10.92251,-6.08346 18.18874,-10.37988 l 13.21132,-7.81167 21.16368,-1.01411 c 45.06583,-2.15945 71.60401,-2.96449 72.37305,-2.19545 0.49842,0.49841 0.0871,1.40074 -1.18188,2.5929 -2.32258,2.18196 -5.61531,2.50494 -43.90045,4.30613 -13.81762,0.65008 -25.60253,1.36599 -26.18868,1.59092 -2.3339,0.8956 -2.88435,3.48206 -3.07706,14.45839 -0.19258,10.96936 -0.16615,11.16595 1.70592,12.68634 1.77022,1.43769 2.68376,1.50914 13.22965,1.03475 35.07283,-1.57768 59.97801,-2.88263 61.52286,-3.22359 0.9665,-0.21331 10.10712,-4.29096 20.3125,-9.06145 16.70402,-7.80826 20.51356,-9.24877 38.1835,-14.43839 10.79554,-3.17062 20.56269,-5.76476 21.70478,-5.76476 2.84192,0 7.49602,2.03812 7.49098,3.28045 -0.002,0.5823 -3.9231,2.4687 -9.17969,4.41666 -5.04656,1.87014 -24.66943,9.12187 -43.60638,16.11496 l -34.43082,12.71471 -17.91293,0.49995 c -15.63872,0.43648 -47.98423,0.96534 -142.91293,2.33669 -12.89062,0.18622 -24.24571,0.16799 -25.23353,-0.0405 z"
       id="path6292"
       style="fill:#000000;fill-opacity:1;stroke:#ff0000;stroke-width:6.25;stroke-linecap:butt;stroke-linejoin:round;stroke-miterlimit:4;stroke-opacity:1;stroke-dasharray:none" />
    <path
       d="m 279.99934,494.3519 -35.74218,-20.75395 0,-47.97712 0,-47.97712 3.76847,2.16424 c 2.07266,1.19033 20.86852,12.00799 41.76857,24.03924 l 38.0001,21.875 0.0283,44.33594 0.0283,44.33594 -3.8086,0 c -2.09472,0 -4.81933,0.16015 -6.05469,0.3559 -1.84367,0.29213 -8.64986,-3.3625 -37.98828,-20.39807 l 0,0 z"
       id="path6294"
       style="fill:#000000;fill-opacity:1;stroke:#ff0000;stroke-width:6.25;stroke-linecap:butt;stroke-linejoin:round;stroke-miterlimit:4;stroke-opacity:1;stroke-dasharray:none" />
    <path
       d="m 347.39549,470.05813 0.0133,-43.55469 37.24243,-21.48437 c 20.48334,-11.81641 39.28593,-22.64731 41.78354,-24.06868 l 4.54111,-2.58431 0,47.96396 0,47.96397 -33.00556,19.05289 c -31.3064,18.07205 -33.2671,19.08207 -38.08594,19.61929 -2.79421,0.31152 -6.7503,0.58445 -8.79132,0.60651 l -3.71093,0.0401 0.0133,-43.55469 z"
       id="path6296"
       style="fill:#000000;fill-opacity:1;stroke:#ff0000;stroke-width:6.25;stroke-linecap:butt;stroke-linejoin:round;stroke-miterlimit:4;stroke-opacity:1;stroke-dasharray:none" />
    <path
       d="m 296.58393,385.76471 c -22.53991,-13.01489 -41.0653,-23.93857 -41.16753,-24.27485 -0.21836,-0.71829 80.65437,-47.48642 82.11481,-47.48642 1.39707,0 82.48224,46.75117 82.28138,47.44087 -0.0906,0.31122 -13.3484,8.17304 -29.46168,17.47071 -16.11329,9.29767 -34.58178,19.96671 -41.0411,23.70898 l -11.74422,6.80413 -40.98166,-23.66342 z"
       id="path6298"
       style="fill:#000000;fill-opacity:1;stroke:#ff0000;stroke-width:6.25;stroke-linecap:butt;stroke-linejoin:round;stroke-miterlimit:4;stroke-opacity:1;stroke-dasharray:none" />
    <path
       d="m 313.00716,663.08938 c -14.78523,-0.80656 -33.62561,-4.30182 -48.05747,-8.91559 -23.4221,-7.48791 -41.64991,-16.95849 -62.09878,-32.2645 -8.59834,-6.43587 -28.14578,-25.55284 -34.84507,-34.07772 -12.67699,-16.13153 -25.28963,-38.45379 -31.94161,-56.53129 -9.07922,-24.6738 -13.6056,-52.75097 -12.61234,-78.23434 2.08841,-53.58045 22.84868,-101.05436 60.65592,-138.70596 28.61867,-28.50087 65.47941,-47.7087 105.46185,-54.95531 20.06146,-3.63604 47.7912,-3.71943 67.96875,-0.20439 68.81004,11.9871 125.98052,58.26915 152.62057,123.55316 6.57407,16.11038 11.40923,35.01701 13.88584,54.29688 1.39069,10.82618 1.17493,36.66639 -0.40387,48.36985 -4.65316,34.49336 -16.97679,66.10826 -36.34253,93.23275 -40.23404,56.35353 -105.90283,88.16717 -174.29126,84.43646 z M 265.35091,576.4895 c 15.2539,-0.22945 47.07031,-0.77332 70.70312,-1.20861 l 42.96875,-0.79145 20.3125,-7.43172 c 49.66369,-18.17044 72.9837,-27.09803 74.51844,-28.52786 3.13005,-2.91608 1.65023,-11.03759 -2.8802,-15.8071 -3.19346,-3.36199 -6.03893,-4.51878 -12.15894,-4.94308 -5.23632,-0.36302 -6.84755,-0.008 -26.6668,5.87485 -19.30587,5.73052 -22.62737,6.98678 -39.18768,14.82163 l -18.09392,8.56042 -15.89045,0.84167 c -8.73975,0.4629 -20.63654,1.03707 -26.43732,1.27591 -5.80079,0.23885 -13.09571,0.63146 -16.21094,0.87249 l -5.66406,0.43823 0,-4.34865 c 0,-5.27598 -1.12162,-4.90601 16.79687,-5.54064 15.3607,-0.54404 36.82863,-1.74072 44.05705,-2.45585 4.28786,-0.42421 5.43894,-0.89409 8.13531,-3.32084 1.72742,-1.55469 4.48964,-4.5282 6.13827,-6.6078 2.41382,-3.04484 2.9975,-4.42842 2.9975,-7.10548 0,-3.92828 -1.47654,-5.59222 -5.75036,-6.48019 -2.92254,-0.60721 -2.7845,-0.69882 26.79697,-17.7828 l 29.73464,-17.17245 0,-58.01868 c 0,-31.91028 -0.227,-58.01868 -0.50446,-58.01868 -0.27744,0 -22.93919,12.91992 -50.35943,28.71093 l -49.855,28.71094 -0.0312,46.20548 c -0.0271,40.22412 -0.1821,46.26339 -1.19698,46.65284 -1.02422,0.39303 -1.19024,-5.26242 -1.36718,-46.57601 L 336.054,420.29363 286.44463,391.60086 c -27.28516,-15.78101 -49.87305,-28.70998 -50.19532,-28.73103 -0.32226,-0.021 -0.58593,26.09485 -0.58593,58.03533 l 0,58.0736 31.71232,18.29359 31.71231,18.29359 -10.67102,0.5694 -10.67103,0.5694 -10.2991,6.1783 c -5.66451,3.39807 -13.34338,7.91559 -17.06415,10.03894 l -6.76503,3.86064 -25.12113,-5.2685 c -31.57976,-6.62302 -32.03747,-6.68803 -34.27789,-4.86786 -2.15276,1.74896 -2.77897,5.83423 -4.0699,26.55138 -1.01682,16.31825 -0.76068,19.59881 1.70452,21.83136 2.97088,2.6905 2.39484,2.68043 83.4976,1.4605 l 0,0 z M 389.37835,389.76725 c 37.8972,-21.85132 48.4203,-28.24582 47.65625,-28.9589 -1.28333,-1.19773 -98.67204,-57.35178 -99.46594,-57.35178 -1.16737,0 -100.29294,57.42668 -100.12324,58.00466 0.0941,0.32053 22.67111,13.5732 50.17111,29.45038 44.7297,25.82479 50.1647,28.76387 51.5625,27.88349 0.85938,-0.54127 23.44907,-13.6038 50.19932,-29.02785 l 0,0 z"
       id="path6300"
       style="fill:#000000;fill-opacity:1;stroke:#ff0000;stroke-width:6.25;stroke-linecap:butt;stroke-linejoin:round;stroke-miterlimit:4;stroke-opacity:1;stroke-dasharray:none" />
  </g>
</svg>
