<?xml version="1.0" encoding="UTF-8" standalone="no"?>
<!-- Created with Inkscape (http://www.inkscape.org/) -->

<svg
   xmlns:dc="http://purl.org/dc/elements/1.1/"
   xmlns:cc="http://creativecommons.org/ns#"
   xmlns:rdf="http://www.w3.org/1999/02/22-rdf-syntax-ns#"
   xmlns:svg="http://www.w3.org/2000/svg"
   xmlns="http://www.w3.org/2000/svg"
   xmlns:sodipodi="http://sodipodi.sourceforge.net/DTD/sodipodi-0.dtd"
   xmlns:inkscape="http://www.inkscape.org/namespaces/inkscape"
   id="svg3039"
   version="1.1"
   inkscape:version="0.48.4 r9939"
   width="246"
   height="236"
   sodipodi:docname="pie_chart.svg">
  <metadata
     id="metadata3045">
    <rdf:RDF>
      <cc:Work
         rdf:about="">
        <dc:format>image/svg+xml</dc:format>
        <dc:type
           rdf:resource="http://purl.org/dc/dcmitype/StillImage" />
        <dc:title></dc:title>
      </cc:Work>
    </rdf:RDF>
  </metadata>
  <defs
     id="defs3043" />
  <sodipodi:namedview
     pagecolor="#ffffff"
     bordercolor="#666666"
     borderopacity="1"
     objecttolerance="10"
     gridtolerance="10"
     guidetolerance="10"
     inkscape:pageopacity="0"
     inkscape:pageshadow="2"
     inkscape:window-width="1381"
     inkscape:window-height="876"
     id="namedview3041"
     showgrid="false"
     inkscape:object-nodes="true"
     inkscape:zoom="2.1842409"
     inkscape:cx="153.46502"
     inkscape:cy="134.09126"
     inkscape:window-x="59"
     inkscape:window-y="24"
     inkscape:window-maximized="1"
     inkscape:current-layer="svg3039" />
  <path
     style="fill:none;stroke:#000000;stroke-width:2.52934861px;stroke-linecap:butt;stroke-linejoin:miter;stroke-opacity:1"
     d="m 125.25794,228.7346 c -1.17046,-38.18813 0,-72.93933 -1.17046,-111.12747 -38.626086,1.14567 -79.593159,-1.14562 -118.2192035,0 C 6.5246905,86.955684 16.721745,56.170274 56.770471,26.310051 79.347486,9.7508252 102.47439,3.6321747 130.18217,3.2730863 c 35.22563,5.6581169 72.58627,18.6262467 93.01554,49.1382297 15.71793,23.835837 21.29414,53.708434 15.58074,81.497774 -4.5893,29.64047 -30.53988,64.10873 -57.14638,79.38258 -19.36998,11.7742 -13.96382,8.59862 -56.37413,15.44293 z"
     id="path3910"
     inkscape:connector-curvature="0"
     sodipodi:nodetypes="ccccccccc" />
  <path
     style="fill:#1b7d45;fill-opacity:0.92694062"
     d="m 144.20588,8.2412332 c 31.18327,6.8828218 57.21218,20.8537048 71.81882,38.5483388 23.07174,27.949323 29.47453,70.115508 15.88438,104.607948 -8.99296,22.82459 -27.60566,45.1743 -49.24705,59.13478 -6.21245,4.00755 -13.32316,8.11812 -15.80156,9.13456 -5.03653,2.06554 -37.89199,7.65066 -38.94626,6.62049 -0.37103,-0.36254 -0.83879,-25.4063 -1.03946,-55.65281 l -0.3649,-54.99365 -20.70389,0.38354 c -11.387109,0.21095 -38.0312,0.25466 -59.209092,0.0971 l -38.5051955,-0.28639 0.75671,-8.30593 C 11.140373,82.372278 23.540602,59.079467 45.124251,39.388021 65.773461,20.549065 86.370464,10.404377 110.69314,7.0932002 c 12.68106,-1.7263288 21.92498,-1.4096801 33.51274,1.14801 l 0,0 z"
     id="path3913"
     inkscape:connector-curvature="0" />
  <path
     style="fill:none;stroke:#000000;stroke-width:2.19175911px;stroke-linecap:butt;stroke-linejoin:miter;stroke-opacity:1"
     d="m 112.77747,131.18794 1.03702,94.18245 C 59.773748,220.35462 18.036504,198.05935 8.0386925,131.18794 z"
     id="path3915"
     inkscape:connector-curvature="0"
     sodipodi:nodetypes="cccc" />
  <path
     style="fill:#1b0f45;fill-opacity:0.92694062"
     d="m 111.07899,139.01603 c 0.3664,3.28249 0.66621,23.81815 0.66621,45.63479 0,31.08769 -0.2803,39.66601 -1.29626,39.66356 -4.1456,-0.0131 -21.284986,-3.46834 -29.767994,-6.00664 -31.959313,-9.56297 -52.190239,-27.89213 -63.585407,-57.60815 -2.28383,-5.95576 -6.978065,-23.89285 -6.978065,-26.66378 0,-0.65628 16.833977,-0.98789 50.147601,-0.98789 l 50.147665,0 0.66625,5.96811 z"
     id="path3917"
     inkscape:connector-curvature="0" />
</svg>
